<svg id="visual" viewBox="0 0 900 600" width="900" height="600" xmlns="http://www.w3.org/2000/svg" xmlns:xlink="http://www.w3.org/1999/xlink" version="1.1"><rect x="0" y="0" width="900" height="600" fill="#fff"></rect><defs><linearGradient id="grad1_0" x1="33.3%" y1="0%" x2="100%" y2="100%"><stop offset="20%" stop-color="#ffffff" stop-opacity="1"></stop><stop offset="80%" stop-color="#ffffff" stop-opacity="1"></stop></linearGradient></defs><defs><linearGradient id="grad2_0" x1="0%" y1="0%" x2="66.7%" y2="100%"><stop offset="20%" stop-color="#ffffff" stop-opacity="1"></stop><stop offset="80%" stop-color="#ffffff" stop-opacity="1"></stop></linearGradient></defs><g transform="translate(900, 0)"><path d="M0 297.5C-31.8 296.4 -63.7 295.3 -91.9 282.9C-120.2 270.5 -144.9 246.8 -159.9 220.1C-174.9 193.3 -180.3 163.6 -194.2 141.1C-208.1 118.6 -230.5 103.3 -249.2 81C-267.8 58.7 -282.6 29.3 -297.5 0L0 0Z" fill="#FBAE3C"></path></g><g transform="translate(0, 600)"><path d="M0 -297.5C34.6 -300.2 69.1 -302.9 91.9 -282.9C114.7 -262.9 125.8 -220.3 141.7 -195C157.5 -169.7 178.2 -161.7 203.9 -148.1C229.6 -134.6 260.3 -115.5 276.8 -89.9C293.2 -64.3 295.3 -32.2 297.5 0L0 0Z" fill="#FBAE3C"></path></g></svg>